<svg width="19" height="21" viewBox="0 0 19 21" fill="none" xmlns="http://www.w3.org/2000/svg">
<path d="M11.7559 21H3.92188C2.11254 21 0.640625 19.5281 0.640625 17.7188V6.60352C0.640625 4.79418 2.11254 3.32227 3.92188 3.32227H11.7559C13.5652 3.32227 15.0371 4.79418 15.0371 6.60352V17.7188C15.0371 19.5281 13.5652 21 11.7559 21ZM3.92188 4.96289C3.01729 4.96289 2.28125 5.69893 2.28125 6.60352V17.7188C2.28125 18.6233 3.01729 19.3594 3.92188 19.3594H11.7559C12.6604 19.3594 13.3965 18.6233 13.3965 17.7188V6.60352C13.3965 5.69893 12.6604 4.96289 11.7559 4.96289H3.92188ZM18.3184 15.668V3.28125C18.3184 1.47192 16.8464 0 15.0371 0H5.93164C5.47855 0 5.11133 0.367218 5.11133 0.820312C5.11133 1.27341 5.47855 1.64062 5.93164 1.64062H15.0371C15.9417 1.64062 16.6777 2.37666 16.6777 3.28125V15.668C16.6777 16.1211 17.045 16.4883 17.498 16.4883C17.9511 16.4883 18.3184 16.1211 18.3184 15.668Z" fill="#7E84A0"/>
</svg>
