<svg width="23" height="23" viewBox="0 0 23 23" fill="none" xmlns="http://www.w3.org/2000/svg">
<path fill-rule="evenodd" clip-rule="evenodd" d="M0.87868 0.87868C2.05025 -0.292893 3.94975 -0.292893 5.12132 0.87868L22.1213 17.8787C23.2929 19.0503 23.2929 20.9497 22.1213 22.1213C20.9497 23.2929 19.0503 23.2929 17.8787 22.1213L0.87868 5.12132C-0.292893 3.94975 -0.292893 2.05025 0.87868 0.87868Z" fill="#5500E0"/>
<path fill-rule="evenodd" clip-rule="evenodd" d="M22.1213 0.87868C23.2929 2.05025 23.2929 3.94975 22.1213 5.12132L5.12132 22.1213C3.94975 23.2929 2.05025 23.2929 0.878679 22.1213C-0.292893 20.9497 -0.292893 19.0503 0.878679 17.8787L17.8787 0.87868C19.0503 -0.292893 20.9497 -0.292893 22.1213 0.87868Z" fill="#5500E0"/>
</svg>
