<svg width="82" height="82" viewBox="0 0 82 82" fill="none" xmlns="http://www.w3.org/2000/svg">
<circle cx="40.8466" cy="40.8466" r="40.8466" fill="url(#paint0_radial_2_918)"/>
<path d="M57.0382 26.4973C54.1047 25.1552 50.9588 24.1664 47.6696 23.6C47.6097 23.5891 47.5499 23.6164 47.5191 23.671C47.1145 24.3885 46.6663 25.3246 46.3525 26.0603C42.8148 25.5322 39.2952 25.5322 35.8301 26.0603C35.5162 25.3082 35.0517 24.3885 34.6453 23.671C34.6145 23.6182 34.5547 23.5909 34.4948 23.6C31.2074 24.1646 28.0616 25.1534 25.1262 26.4973C25.1007 26.5083 25.079 26.5265 25.0645 26.5501C19.0975 35.4387 17.4629 44.1089 18.2648 52.6715C18.2684 52.7134 18.292 52.7534 18.3247 52.7789C22.2615 55.6616 26.075 57.4117 29.8177 58.5717C29.8776 58.5899 29.9411 58.5681 29.9792 58.5189C30.8645 57.3134 31.6537 56.0423 32.3304 54.7056C32.3703 54.6273 32.3322 54.5344 32.2506 54.5034C30.9988 54.03 29.8068 53.4527 28.6602 52.7971C28.5695 52.7443 28.5623 52.615 28.6457 52.5531C28.887 52.3728 29.1284 52.1852 29.3587 51.9958C29.4004 51.9612 29.4585 51.9539 29.5075 51.9758C37.0401 55.4049 45.195 55.4049 52.6387 51.9758C52.6877 51.9521 52.7458 51.9594 52.7893 51.994C53.0198 52.1834 53.2611 52.3728 53.5042 52.5531C53.5876 52.615 53.5821 52.7443 53.4915 52.7971C52.3449 53.4654 51.1529 54.03 49.8993 54.5016C49.8177 54.5326 49.7814 54.6273 49.8213 54.7056C50.5125 56.0404 51.3017 57.3115 52.1707 58.5171C52.207 58.5681 52.2723 58.5899 52.3322 58.5717C56.093 57.4117 59.9065 55.6616 63.8433 52.7789C63.8778 52.7534 63.8996 52.7152 63.9032 52.6733C64.8629 42.774 62.2958 34.1749 57.0981 26.552C57.0854 26.5265 57.0637 26.5083 57.0382 26.4973ZM33.4553 47.4577C31.1874 47.4577 29.3188 45.3818 29.3188 42.8323C29.3188 40.2828 31.1512 38.2068 33.4553 38.2068C35.7774 38.2068 37.628 40.301 37.5917 42.8323C37.5917 45.3818 35.7593 47.4577 33.4553 47.4577ZM48.7491 47.4577C46.4813 47.4577 44.6127 45.3818 44.6127 42.8323C44.6127 40.2828 46.445 38.2068 48.7491 38.2068C51.0713 38.2068 52.9218 40.301 52.8855 42.8323C52.8855 45.3818 51.0713 47.4577 48.7491 47.4577Z" fill="url(#paint1_radial_2_918)"/>
<defs>
<radialGradient id="paint0_radial_2_918" cx="0" cy="0" r="1" gradientUnits="userSpaceOnUse" gradientTransform="translate(40.8466 40.8466) rotate(90) scale(40.8466)">
<stop stop-color="#6A4DE3"/>
<stop offset="1" stop-color="#6A4DE3" stop-opacity="0"/>
</radialGradient>
<radialGradient id="paint1_radial_2_918" cx="0" cy="0" r="1" gradientUnits="userSpaceOnUse" gradientTransform="translate(41.088 41.0879) rotate(90) scale(17.4902 23.0134)">
<stop offset="0.177083" stop-color="#C993FF"/>
<stop offset="1" stop-color="#6551D3"/>
</radialGradient>
</defs>
</svg>
