<svg width="82" height="82" viewBox="0 0 82 82" fill="none" xmlns="http://www.w3.org/2000/svg">
<circle cx="41.1534" cy="40.8466" r="40.8466" fill="url(#paint0_radial_2_922)"/>
<path d="M56.7935 34.0061C56.8175 34.3453 56.8175 34.6845 56.8175 35.0268C56.8175 45.4578 48.6998 57.488 33.8564 57.488V57.4817C29.4716 57.488 25.1779 56.2593 21.4866 53.9427C22.1242 54.0177 22.7649 54.0552 23.4073 54.0568C27.0411 54.0599 30.571 52.8672 33.4297 50.671C29.9765 50.6069 26.9484 48.4044 25.8905 45.189C27.1002 45.4172 28.3466 45.3703 29.5339 45.053C25.7691 44.3089 23.0606 41.0731 23.0606 37.3153C23.0606 37.2809 23.0606 37.2481 23.0606 37.2153C24.1823 37.8265 25.4383 38.1657 26.7231 38.2032C23.1772 35.885 22.0842 31.2705 24.2255 27.6627C28.3226 32.5945 34.3677 35.5927 40.857 35.91C40.2067 33.1682 41.0951 30.2951 43.1917 28.3677C46.4419 25.379 51.5538 25.5321 54.6091 28.7101C56.4164 28.3615 58.1486 27.7128 59.7337 26.7936C59.1313 28.621 57.8705 30.1732 56.1863 31.1595C57.7858 30.9751 59.3486 30.5562 60.8203 29.9168C59.7369 31.505 58.3723 32.8884 56.7935 34.0061Z" fill="url(#paint1_radial_2_922)"/>
<defs>
<radialGradient id="paint0_radial_2_922" cx="0" cy="0" r="1" gradientUnits="userSpaceOnUse" gradientTransform="translate(41.1534 40.8466) rotate(90) scale(40.8466)">
<stop stop-color="#2ABCF1"/>
<stop offset="1" stop-color="#2ABCF1" stop-opacity="0"/>
</radialGradient>
<radialGradient id="paint1_radial_2_922" cx="0" cy="0" r="1" gradientUnits="userSpaceOnUse" gradientTransform="translate(41.1535 41.8553) rotate(90) scale(15.6327 19.6669)">
<stop stop-color="#53FFFF"/>
<stop offset="1" stop-color="#3BD7FF"/>
</radialGradient>
</defs>
</svg>
